<?xml version="1.0" encoding="UTF-8"?>
<svg xmlns="http://www.w3.org/2000/svg" xmlns:xlink="http://www.w3.org/1999/xlink" width="21px" height="24px" viewBox="0 0 21 24" version="1.1">
<g id="surface1">
<path style=" stroke:none;fill-rule:nonzero;fill:rgb(10.588235%,45.098039%,72.941176%);fill-opacity:1;" d="M 1.757812 21.484375 L 0 0.0390625 L 21 0.0820312 L 19.140625 21.484375 L 10.578125 23.960938 Z M 1.757812 21.484375 "/>
<path style=" stroke:none;fill-rule:nonzero;fill:rgb(10.980392%,53.333333%,78.039216%);fill-opacity:1;" d="M 10.578125 21.886719 L 10.578125 2.082031 L 19.226562 2.113281 L 17.683594 19.832031 Z M 10.578125 21.886719 "/>
<path style=" stroke:none;fill-rule:nonzero;fill:rgb(100%,100%,100%);fill-opacity:1;" d="M 17.078125 4.613281 L 3.777344 4.613281 L 4.136719 7.203125 L 10.449219 7.203125 L 4.238281 9.863281 L 4.597656 12.367188 L 13.75 12.367188 L 13.417969 15.863281 L 10.320312 16.464844 L 7.507812 15.746094 L 7.292969 13.761719 L 4.714844 13.761719 L 5.058594 17.890625 L 10.59375 19.429688 L 15.898438 17.746094 L 16.574219 9.675781 L 10.96875 9.675781 L 17.078125 7.144531 Z M 17.078125 4.613281 "/>
</g>
</svg>
