<?xml version="1.0" encoding="UTF-8"?>
<svg xmlns="http://www.w3.org/2000/svg" xmlns:xlink="http://www.w3.org/1999/xlink" viewBox="0 0 128 128" width="128px" height="128px">
<g id="surface12752025">
<path style=" stroke:none;fill-rule:nonzero;fill:rgb(67.843139%,67.843139%,70.19608%);fill-opacity:1;" d="M 61.992188 12.03125 C 61.867188 12.03125 61.75 12.039062 61.625 12.0625 C 61.5 12.09375 61.375 12.125 61.25 12.171875 C 61.132812 12.226562 61.023438 12.289062 60.90625 12.359375 C 60.851562 12.398438 60.773438 12.414062 60.71875 12.460938 L 36 32.921875 L 36 26.117188 C 36 25.007812 35.109375 24.117188 34 24.117188 C 32.890625 24.117188 32 25.007812 32 26.117188 L 32 36.117188 C 32 36.148438 32.015625 36.179688 32.023438 36.21875 L 28 39.539062 L 28 18.109375 C 28 17.007812 27.109375 16.109375 26 16.109375 C 24.890625 16.109375 24 17.007812 24 18.109375 L 24 42.117188 C 24 42.335938 24.0625 42.546875 24.125 42.75 L 2.71875 60.460938 C 1.867188 61.164062 1.757812 62.421875 2.453125 63.273438 C 2.851562 63.75 3.429688 64 4 64 C 4.453125 64 4.90625 63.851562 5.28125 63.539062 L 12 57.976562 L 12 108 L 6 108 C 4.890625 108 4 108.898438 4 110 C 4 111.101562 4.890625 112 6 112 L 118 112 C 119.109375 112 120 111.101562 120 110 C 120 108.898438 119.109375 108 118 108 L 112 108 L 112 57.976562 L 118.71875 63.539062 C 119.09375 63.851562 119.546875 64 120 64 C 120.570312 64 121.140625 63.75 121.539062 63.28125 C 122.242188 62.421875 122.125 61.164062 121.273438 60.460938 L 63.273438 12.460938 C 63.21875 12.414062 63.148438 12.398438 63.085938 12.359375 C 62.96875 12.28125 62.859375 12.21875 62.726562 12.171875 C 62.609375 12.125 62.5 12.09375 62.375 12.0625 C 62.25 12.039062 62.125 12.03125 61.992188 12.03125 Z M 62 16.59375 L 108 54.664062 L 108 88 L 76 88 L 76 72 C 76 69.796875 74.203125 68 72 68 L 52 68 C 49.796875 68 48 69.796875 48 72 L 48 88 L 16 88 L 16 54.664062 Z M 62 36 C 56.484375 36 52 40.484375 52 46 C 52 51.515625 56.484375 56 62 56 C 67.515625 56 72 51.515625 72 46 C 72 40.484375 67.515625 36 62 36 Z M 62 39.585938 C 65.539062 39.585938 68.414062 42.460938 68.414062 46 C 68.414062 49.539062 65.539062 52.414062 62 52.414062 C 58.460938 52.414062 55.585938 49.539062 55.585938 46 C 55.585938 42.460938 58.460938 39.585938 62 39.585938 Z M 52 72 L 72 72 L 72 107.898438 L 52 107.898438 Z M 66 86 C 64.890625 86 64 86.898438 64 88 L 64 92 C 64 93.101562 64.890625 94 66 94 C 67.109375 94 68 93.101562 68 92 L 68 88 C 68 86.898438 67.109375 86 66 86 Z M 16 92 L 48 92 L 48 108 L 16 108 Z M 76 92 L 108 92 L 108 108 L 76 108 Z M 22 96 C 20.890625 96 20 96.898438 20 98 L 20 102 C 20 103.101562 20.890625 104 22 104 C 23.109375 104 24 103.101562 24 102 L 24 98 C 24 96.898438 23.109375 96 22 96 Z M 32 96 C 30.890625 96 30 96.898438 30 98 L 30 102 C 30 103.101562 30.890625 104 32 104 C 33.109375 104 34 103.101562 34 102 L 34 98 C 34 96.898438 33.109375 96 32 96 Z M 42 96 C 40.890625 96 40 96.898438 40 98 L 40 102 C 40 103.101562 40.890625 104 42 104 C 43.109375 104 44 103.101562 44 102 L 44 98 C 44 96.898438 43.109375 96 42 96 Z M 82 96 C 80.890625 96 80 96.898438 80 98 L 80 102 C 80 103.101562 80.890625 104 82 104 C 83.109375 104 84 103.101562 84 102 L 84 98 C 84 96.898438 83.109375 96 82 96 Z M 92 96 C 90.890625 96 90 96.898438 90 98 L 90 102 C 90 103.101562 90.890625 104 92 104 C 93.109375 104 94 103.101562 94 102 L 94 98 C 94 96.898438 93.109375 96 92 96 Z M 102 96 C 100.890625 96 100 96.898438 100 98 L 100 102 C 100 103.101562 100.890625 104 102 104 C 103.109375 104 104 103.101562 104 102 L 104 98 C 104 96.898438 103.109375 96 102 96 Z M 102 96 "/>
</g>
</svg>
